<svg xmlns="http://www.w3.org/2000/svg" viewBox="0 0 980 240" role="img" aria-labelledby="title"><title id="title">Baked Kale — FDE / IT Engineering</title><g transform="translate(8 10) scale(.9)"><g fill="none" stroke="#d9ebe2" stroke-width="6" stroke-linecap="round" stroke-linejoin="round"><path d="M12 63h34l18 18h26"/><path d="M12 96h42l17 17h20"/><path d="M12 129h49l18 18h17"/><path d="M12 162h57l15 15h17"/><circle cx="12" cy="63" r="8" fill="#f5faf7"/><circle cx="12" cy="96" r="8" fill="#f5faf7"/><circle cx="12" cy="129" r="8" fill="#f5faf7"/><circle cx="12" cy="162" r="8" fill="#f5faf7"/><circle cx="46" cy="63" r="8" fill="#f5faf7"/><circle cx="54" cy="96" r="8" fill="#f5faf7"/></g><path d="M113 195c10-29 13-58 10-86-3-29-2-55 7-80 7 16 9 31 7 45 12-22 27-35 44-39-7 19-17 34-30 45 20-12 38-15 54-10-10 17-24 30-42 39 20-4 36-1 48 9-13 14-29 23-48 27 16 4 28 12 36 24-16 9-34 12-53 9-8 9-19 15-33 17z" fill="#72b98f"/><path d="M130 188c7-41 5-82 0-124M130 112l-30-30M132 129l37-39M130 149l-37-23M132 166l43-24" fill="none" stroke="#f3f8f5" stroke-width="7" stroke-linecap="round"/><path d="M108 200c12-20 18-43 20-69" fill="none" stroke="#72b98f" stroke-width="8" stroke-linecap="round"/></g><line x1="235" y1="50" x2="235" y2="192" stroke="#72b98f" stroke-width="5"/><text x="275" y="133" font-family="Inter,Segoe UI,Arial,sans-serif" font-size="88" font-weight="800" letter-spacing="-4" fill="#f4f7f5">Baked</text><text x="560" y="133" font-family="Inter,Segoe UI,Arial,sans-serif" font-size="88" font-weight="800" letter-spacing="-4" fill="#82c69f">Kale</text><text x="280" y="185" font-family="Inter,Segoe UI,Arial,sans-serif" font-size="31" font-weight="600" letter-spacing="10" fill="#dfe9e4">FDE</text><text x="395" y="185" font-family="Inter,Segoe UI,Arial,sans-serif" font-size="31" font-weight="700" fill="#82c69f">/</text><text x="440" y="185" font-family="Inter,Segoe UI,Arial,sans-serif" font-size="31" font-weight="600" letter-spacing="7" fill="#dfe9e4">IT Engineering</text></svg>