<svg xmlns="http://www.w3.org/2000/svg" viewBox="0 0 1600 760" role="img" aria-labelledby="t d"><title id="t">Kale's FDE business model</title><desc id="d">Small businesses and sole proprietors feed recurring workflow problems into Kale's FDE, which standardizes them into practical software products.</desc><defs><linearGradient id="g" x1="0" y1="0" x2="1" y2="1"><stop stop-color="#073d2b"/><stop offset="1" stop-color="#188755"/></linearGradient><filter id="s" x="-20%" y="-20%" width="140%" height="140%"><feDropShadow dx="0" dy="15" stdDeviation="22" flood-color="#0b3f2d" flood-opacity=".11"/></filter></defs><rect width="1600" height="760" fill="#fff"/><g font-family="Arial,sans-serif"><text x="800" y="62" text-anchor="middle" font-size="50" font-weight="800" fill="#17251f"><tspan fill="#0e7a4b">Kale’s</tspan> FDE Business Model</text><text x="800" y="103" text-anchor="middle" font-size="17" font-weight="700" letter-spacing="5" fill="#5c7065">FROM WORKFLOW PROBLEMS TO PRACTICAL SOFTWARE</text><g transform="translate(70 150)"><circle cx="72" cy="40" r="46" fill="#f4f8f5" stroke="#b9cabf"/><path d="M44 35h56v35H44zM36 35l12-18h48l12 18M58 70v-20h28v20" fill="none" stroke="#0e7a4b" stroke-width="5"/><text x="140" y="24" fill="#0e7a4b" font-size="16" font-weight="800" letter-spacing="2">WHO RECEIVES VALUE</text><text x="140" y="62" fill="#17251f" font-size="34" font-weight="800">Small Businesses &amp;</text><text x="140" y="100" fill="#17251f" font-size="34" font-weight="800">Sole Proprietors</text><g transform="translate(20 145)"><g fill="#f4f8f5" stroke="#cbd8d0"><circle cx="42" cy="35" r="31"/><circle cx="42" cy="118" r="31"/><circle cx="42" cy="201" r="31"/><circle cx="42" cy="284" r="31"/></g><g stroke="#0e7a4b" stroke-width="4" fill="none"><circle cx="42" cy="35" r="13"/><path d="M42 15v10M42 45l12 9M27 118h30M32 108v20M42 103v30M52 111v22M27 201h30v22H27zM31 195h22M24 294l16-17 12 8 13-20M24 294h38"/></g><g fill="#17251f" font-size="18" font-weight="800"><text x="90" y="31">Manual work</text><text x="90" y="114">Errors &amp; rework</text><text x="90" y="197">Scattered tools</text><text x="90" y="280">Limits growth</text></g><g fill="#6b7c73" font-size="14"><text x="90" y="53">Time lost to repetitive processes</text><text x="90" y="136">Inconsistent data and handoffs</text><text x="90" y="219">Files and data spread across places</text><text x="90" y="302">Busy work gets in the way</text></g></g></g><circle cx="525" cy="390" r="42" fill="url(#g)"/><path d="M505 390h37M530 374l16 16-16 16" fill="none" stroke="#fff" stroke-width="6"/><g transform="translate(570 145)"><circle cx="75" cy="45" r="52" fill="#f4f8f5" stroke="#b9cabf"/><path d="M62 82c-12-53 7-84 27-103 6 23 8 38 4 54 15-10 28-20 40-36-2 43-21 74-56 93" fill="none" stroke="#0e7a4b" stroke-width="6" stroke-linecap="round"/><text x="150" y="27" fill="#0e7a4b" font-size="16" font-weight="800" letter-spacing="2">WHAT KALE’S FDE DOES</text><text x="150" y="66" fill="#17251f" font-size="34" font-weight="800">Organize &amp; Productize</text><text x="150" y="96" fill="#62766b" font-size="16">Turn recurring workflows into standardized software.</text><g transform="translate(0 145)" filter="url(#s)"><rect x="0" y="0" width="500" height="235" rx="28" fill="#fff" stroke="#d2ddd6"/><g transform="translate(40 38)"><g fill="#f4f8f5" stroke="#c8d7cf"><circle cx="45" cy="45" r="36"/><circle cx="165" cy="45" r="36"/><circle cx="285" cy="45" r="36"/><circle cx="405" cy="45" r="36"/></g><g stroke="#0e7a4b" stroke-width="4" fill="none"><circle cx="45" cy="45" r="15"/><path d="M57 57l13 13M145 45h40M165 25v40M269 33l-14 12 14 12M301 33l14 12-14 12M390 45l11 11 20-24"/></g><g fill="#0e7a4b" font-size="13" font-weight="800" text-anchor="middle"><text x="45" y="112">DISCOVER</text><text x="165" y="112">STANDARDIZE</text><text x="285" y="112">PRODUCTIZE</text><text x="405" y="112">VALIDATE</text></g><path d="M83 45h44M203 45h44M323 45h44" stroke="#9db5a7" stroke-width="3"/><path d="M116 35l11 10-11 10M236 35l11 10-11 10M356 35l11 10-11 10" fill="none" stroke="#9db5a7" stroke-width="3"/></g><rect x="130" y="178" width="240" height="38" rx="19" fill="url(#g)"/><text x="250" y="203" text-anchor="middle" fill="#fff" font-size="14" font-weight="800">Built on FDE Expertise</text></g></g><circle cx="1098" cy="390" r="38" fill="url(#g)"/><path d="M1080 390h33M1103 376l14 14-14 14" fill="none" stroke="#fff" stroke-width="5"/><g transform="translate(1185 150)"><circle cx="50" cy="38" r="45" fill="#f4f8f5" stroke="#b9cabf"/><rect x="27" y="20" width="46" height="32" rx="3" fill="none" stroke="#0e7a4b" stroke-width="5"/><path d="M37 62h26M50 52v10" stroke="#0e7a4b" stroke-width="5"/><text x="110" y="23" fill="#0e7a4b" font-size="16" font-weight="800" letter-spacing="2">WHAT IT DELIVERS</text><text x="110" y="62" fill="#17251f" font-size="34" font-weight="800">Practical Software</text><g transform="translate(0 130)" filter="url(#s)"><rect width="330" height="150" rx="22" fill="#fff" stroke="#d2ddd6"/><rect x="22" y="24" width="84" height="92" rx="18" fill="#edf5f0"/><rect x="42" y="43" width="44" height="34" rx="4" fill="none" stroke="#0e7a4b" stroke-width="5"/><path d="M48 69l12-12 8 7 11-17" fill="none" stroke="#0e7a4b" stroke-width="4"/><text x="124" y="55" font-size="25" font-weight="800" fill="#17251f">IMS Starter</text><text x="124" y="83" font-size="14" fill="#0e7a4b">Inventory Management</text><text x="124" y="113" font-size="13" fill="#687b70">Track. Organize. Grow.</text><rect y="172" width="330" height="150" rx="22" fill="#fff" stroke="#d2ddd6"/><rect x="22" y="196" width="84" height="92" rx="18" fill="#edf5f0"/><rect x="42" y="214" width="44" height="34" rx="4" fill="none" stroke="#0e7a4b" stroke-width="5"/><path d="M48 241l9-11 8 7 14-17" fill="none" stroke="#0e7a4b" stroke-width="4"/><text x="124" y="225" font-size="22" font-weight="800" fill="#17251f">Business DX</text><text x="124" y="251" font-size="22" font-weight="800" fill="#17251f">Pack</text><text x="124" y="277" font-size="13" fill="#0e7a4b">Workflow Digitalization</text><text x="124" y="301" font-size="12" fill="#687b70">Streamline. Automate. Scale.</text></g></g><g transform="translate(165 650)"><rect x="0" y="0" width="1270" height="78" rx="24" fill="#f8fbf9" stroke="#d6e1da"/><g fill="#0e7a4b" font-size="16" font-weight="800"><text x="160" y="34">STANDARDIZE</text><text x="570" y="34">DEPLOY</text><text x="990" y="34">SUSTAIN</text></g><g fill="#61746a" font-size="13"><text x="160" y="56">Create order from recurring complexity.</text><text x="570" y="56">Deliver software teams can adopt.</text><text x="990" y="56">Evolve for long-term value.</text></g><g stroke="#0e7a4b" stroke-width="4" fill="none"><circle cx="100" cy="39" r="24"/><circle cx="510" cy="39" r="24"/><circle cx="930" cy="39" r="24"/><path d="M89 39l8 8 16-18M498 39h24M510 27v24M918 45c10-18 22-18 24-28 6 20-4 31-17 34"/></g><path d="M390 39h75M455 29l12 10-12 10M800 39h75M865 29l12 10-12 10" fill="none" stroke="#8fb19e" stroke-width="3"/></g></g></svg>